<?xml version="1.0" encoding="utf-8"?>
<!-- Generator: Adobe Illustrator 19.1.0, SVG Export Plug-In . SVG Version: 6.00 Build 0)  -->
<svg version="1.1" id="Layer_1" xmlns="http://www.w3.org/2000/svg" xmlns:xlink="http://www.w3.org/1999/xlink" x="0px" y="0px"
	 viewBox="0 0 792 612" style="enable-background:new 0 0 792 612;" xml:space="preserve">
<style type="text/css">
	.st0{fill:#36B7B6;}
	.st1{fill:#FFFFFF;}
</style>
<path class="st0" d="M244,295.1c-0.3-0.2-0.6-0.2-0.9,0c-0.3,0.2-0.5,0.5-0.5,0.8V318c0,0.3,0.2,0.6,0.5,0.8
	c0.1,0.1,0.3,0.1,0.5,0.1c0.2,0,0.3,0,0.5-0.1l18-11c0.3-0.2,0.4-0.5,0.4-0.8s-0.2-0.6-0.4-0.8L244,295.1z M244.4,316.3v-18.8
	l15.3,9.4L244.4,316.3z M249.5,273.2c-18.6,0-33.7,15.1-33.7,33.7c0,18.6,15.1,33.7,33.7,33.7c18.6,0,33.7-15.1,33.7-33.7
	C283.2,288.3,268.1,273.2,249.5,273.2z M249.5,338.8c-17.6,0-31.9-14.3-31.9-31.9c0-17.6,14.3-31.9,31.9-31.9
	c17.6,0,31.9,14.3,31.9,31.9C281.4,324.5,267.1,338.8,249.5,338.8z"/>
<g>
	<path class="st1" d="M309.5,319.8v-30.3h11.4c5.8,0,9.1,4.1,9.1,8.9c0,4.8-3.4,8.9-9.1,8.9h-8.8v12.6H309.5z M327.3,298.4
		c0-3.8-2.7-6.5-6.7-6.5h-8.5v13h8.5C324.6,304.9,327.3,302.2,327.3,298.4z"/>
	<path class="st1" d="M337.8,319.8v-30.3h2.6v28H355v2.4H337.8z"/>
	<path class="st1" d="M384.9,319.8l-3-7.5h-16l-3,7.5h-3l12.4-30.3h3.2l12.4,30.3H384.9z M373.9,292.3l-7.1,17.7H381L373.9,292.3z"
		/>
	<path class="st1" d="M400.8,319.8v-13l-12-17.4h3.1l10.2,14.9l10.2-14.9h3.1l-12,17.4v13H400.8z"/>
	<path class="st1" d="M436.2,319.8v-30.3h2.6v30.3H436.2z"/>
	<path class="st1" d="M470.3,319.8l-19.1-26v26h-2.6v-30.3h2.6l19,25.7v-25.7h2.6v30.3H470.3z"/>
	<path class="st1" d="M493.5,315.3l1.8-1.5c1.7,2.4,4.6,4.2,8.5,4.2c4.7,0,7.6-2.5,7.6-6.5c0-4.4-3.6-6.1-8.1-6.1
		c-1.2,0-2.4,0-2.8,0V303c0.5,0,1.6,0,2.8,0c4,0,7.7-1.7,7.7-5.8c0-3.8-3.4-5.9-7.3-5.9c-3.5,0-5.9,1.4-8.1,3.9l-1.6-1.6
		c2.1-2.6,5.5-4.6,9.9-4.6c5.3,0,9.8,2.9,9.8,8c0,4.6-3.9,6.6-6.5,7.1c2.6,0.3,7,2.5,7,7.5c0,5-3.8,8.7-10.2,8.7
		C498.9,320.4,495.2,318.1,493.5,315.3z"/>
	<path class="st1" d="M520.8,304.7c0-7.8,3.2-15.6,11.6-15.6c4,0,6.4,1.6,8.2,3.9l-1.5,1.9c-1.5-2-3.3-3.4-6.6-3.4
		c-6.5,0-9,6.9-9,13.3c0,0.5,0,1,0,1.4c1.3-2.1,4.8-5,8.9-5c5.5,0,9.8,3.1,9.8,9.6c0,5-3.7,9.7-10.2,9.7
		C523.7,320.4,520.8,312.8,520.8,304.7z M539.5,310.7c0-5-3.2-7.3-7.6-7.3c-3.3,0-6.5,2.1-8.3,5.2c0.4,4.1,2.5,9.4,8.2,9.4
		C537,318,539.5,314,539.5,310.7z"/>
	<path class="st1" d="M547.8,304.7c0-7.2,3-15.6,11.2-15.6c8.1,0,11.2,8.4,11.2,15.6c0,7.2-3.1,15.7-11.2,15.7
		C550.8,320.4,547.8,311.9,547.8,304.7z M567.4,304.7c0-6.3-2-13.3-8.4-13.3c-6.4,0-8.5,7-8.5,13.3c0,6.2,2.1,13.3,8.5,13.3
		C565.3,318,567.4,310.9,567.4,304.7z"/>
	<path class="st1" d="M577.1,297.9c0-4.2,2.9-7.5,7.2-7.5c4.4,0,7.2,3.3,7.2,7.5c0,4.1-2.8,7.5-7.2,7.5
		C579.9,305.4,577.1,302,577.1,297.9z M589.5,297.9c0-3.2-1.9-5.8-5.2-5.8c-3.3,0-5.1,2.6-5.1,5.8s1.9,5.8,5.1,5.8
		C587.6,303.7,589.5,301.1,589.5,297.9z"/>
</g>
</svg>
